<svg xmlns="http://www.w3.org/2000/svg" xmlns:xlink="http://www.w3.org/1999/xlink" fill="none" version="1.1" width="422" height="102" viewBox="0 0 422 102"><defs><clipPath id="master_svg0_97_1771"><rect x="0" y="0" width="422" height="102" rx="0"/></clipPath><clipPath id="master_svg1_97_1783"><rect x="0" y="-18" width="140" height="140" rx="0"/></clipPath><linearGradient x1="0.33318981528282166" y1="0.24062524735927582" x2="0.9564955234527588" y2="1.1402971744537354" id="master_svg2_1_643"><stop offset="0%" stop-color="#FF5900" stop-opacity="1"/><stop offset="43.230634927749634%" stop-color="#FD9A2F" stop-opacity="1"/><stop offset="100%" stop-color="#FFAA00" stop-opacity="1"/></linearGradient><linearGradient x1="0.21849365532398224" y1="0.08506011962890625" x2="0.5" y2="1" id="master_svg3_1_640"><stop offset="0%" stop-color="#FE7C19" stop-opacity="1"/><stop offset="99.99997019767761%" stop-color="#FEA315" stop-opacity="1"/></linearGradient><linearGradient x1="0.5" y1="0" x2="0.5" y2="1" id="master_svg4_1_635"><stop offset="0%" stop-color="#FF5900" stop-opacity="1"/><stop offset="100%" stop-color="#FEA015" stop-opacity="1"/></linearGradient><linearGradient x1="0.21849365532398224" y1="0.08506011962890625" x2="0.5" y2="1" id="master_svg5_1_640"><stop offset="0%" stop-color="#FE7C19" stop-opacity="1"/><stop offset="99.99997019767761%" stop-color="#FEA315" stop-opacity="1"/></linearGradient></defs><g clip-path="url(#master_svg0_97_1771)"><g><g><g><g><g><path d="M163.7292,23.223300000000002Q160.3047,23.223300000000002,158.4297,25.6582Q156.55469,28.0931,156.55469,32.429Q156.55469,41.4785,163.7292,41.4785Q166.737,41.4785,171.0078,39.9681L171.0078,45.0462Q167.4922,46.5176,163.1562,46.5176Q156.93229,46.5176,153.625,42.871700000000004Q150.33073,39.225899999999996,150.33073,32.403Q150.33073,28.1061,151.94531,24.877000000000002Q153.57292,21.6348,156.60677,19.91602Q159.6536,18.18425,163.7292,18.18425Q167.8958,18.18425,172.0885,20.18945L170.1354,25.124299999999998Q168.5339,24.356099999999998,166.9062,23.7962Q165.2917,23.223300000000002,163.7292,23.223300000000002ZM177.4271,46.5176L177.4271,18.18425L183.4818,18.18425L183.4818,41.5176L195.0703,41.5176L195.0703,46.5176L177.4271,46.5176ZM225.85160000000002,32.337900000000005Q225.85160000000002,39.1738,222.33589999999998,42.8457Q218.8203,46.5176,212.2578,46.5176Q205.6953,46.5176,202.1797,42.8457Q198.6641,39.1738,198.6641,32.2988Q198.6641,25.436799999999998,202.1927,21.8171Q205.72140000000002,18.18425,212.2969,18.18425Q218.8854,18.18425,222.362,21.8431Q225.85160000000002,25.4889,225.85160000000002,32.337900000000005ZM205.0052,32.337900000000005Q205.0052,36.8561,206.8151,39.147800000000004Q208.638,41.439499999999995,212.2578,41.439499999999995Q219.4974,41.439499999999995,219.4974,32.337900000000005Q219.4974,23.223300000000002,212.2969,23.223300000000002Q208.6771,23.223300000000002,206.84109999999998,25.528Q205.0052,27.8197,205.0052,32.337900000000005ZM254.836,18.18425L254.836,36.2702Q254.836,39.3691,253.417,41.6999Q252.01,44.0306,249.328,45.2806Q246.65890000000002,46.5176,243,46.5176Q237.4922,46.5176,234.4453,43.7572Q231.39839999999998,40.996700000000004,231.39839999999998,36.192099999999996L231.39839999999998,18.18425L237.4401,18.18425L237.4401,35.2155Q237.4401,38.4316,238.76819999999998,39.942099999999996Q240.09640000000002,41.439499999999995,243.16930000000002,41.439499999999995Q246.138,41.439499999999995,247.46609999999998,39.929Q248.80700000000002,38.4186,248.80700000000002,35.1764L248.80700000000002,18.18425L254.836,18.18425ZM285.29200000000003,32.0775Q285.29200000000003,39.0697,281.26800000000003,42.7936Q277.25800000000004,46.5176,269.68,46.5176L261.594,46.5176L261.594,18.18425L270.565,18.18425Q277.557,18.18425,281.424,21.856099999999998Q285.29200000000003,25.515,285.29200000000003,32.0775ZM279.003,32.2337Q279.003,23.145200000000003,270.878,23.145200000000003L267.648,23.145200000000003L267.648,41.5176L270.253,41.5176Q279.003,41.5176,279.003,32.2337ZM291.594,18.18425L300.48699999999997,18.18425Q306.555,18.18425,309.302,19.85091Q312.049,21.5176,312.049,25.1634Q312.049,27.6243,310.839,29.2129Q309.64099999999996,30.7884,307.648,31.1139L307.648,31.3092Q310.37,31.9212,311.568,33.6139Q312.76599999999996,35.3066,312.76599999999996,38.1061Q312.76599999999996,42.0775,309.94,44.304Q307.128,46.5176,302.284,46.5176L291.594,46.5176L291.594,18.18425ZM297.648,29.0176L301.164,29.0176Q303.625,29.0176,304.73199999999997,28.3145Q305.839,27.6113,305.839,25.9837Q305.839,24.4603,304.628,23.8092Q303.43,23.145200000000003,300.839,23.145200000000003L297.648,23.145200000000003L297.648,29.0176ZM297.648,33.8223L297.648,41.5176L301.594,41.5176Q304.094,41.5176,305.279,40.528Q306.477,39.538399999999996,306.477,37.4941Q306.477,33.8223,301.398,33.8223L297.648,33.8223ZM334.706,46.5176L318.26,46.5176L318.26,18.18425L334.706,18.18425L334.706,23.145200000000003L324.315,23.145200000000003L324.315,29.0176L333.99,29.0176L333.99,33.9785L324.315,33.9785L324.315,41.5176L334.706,41.5176L334.706,46.5176ZM346.815,30.6842L348.76800000000003,30.6842Q351.64599999999996,30.6842,353.01300000000003,29.7467Q354.38,28.8092,354.38,26.804000000000002Q354.38,24.8249,352.974,23.991500000000002Q351.581,23.145200000000003,348.651,23.145200000000003L346.815,23.145200000000003L346.815,30.6842ZM346.815,35.6061L346.815,46.5176L340.76,46.5176L340.76,18.18425L349.081,18.18425Q354.901,18.18425,357.688,20.2806Q360.48699999999997,22.377000000000002,360.48699999999997,26.6478Q360.48699999999997,29.1348,359.094,31.0749Q357.714,33.015,355.174,34.121700000000004L363.573,46.5176L356.85400000000004,46.5176L350.044,35.6061L346.815,35.6061ZM373.48199999999997,30.6842L375.435,30.6842Q378.313,30.6842,379.68,29.7467Q381.047,28.8092,381.047,26.804000000000002Q381.047,24.8249,379.64099999999996,23.991500000000002Q378.247,23.145200000000003,375.318,23.145200000000003L373.48199999999997,23.145200000000003L373.48199999999997,30.6842ZM373.48199999999997,35.6061L373.48199999999997,46.5176L367.427,46.5176L367.427,18.18425L375.747,18.18425Q381.568,18.18425,384.35400000000004,20.2806Q387.154,22.377000000000002,387.154,26.6478Q387.154,29.1348,385.76,31.0749Q384.38,33.015,381.841,34.121700000000004L390.24,46.5176L383.52099999999996,46.5176L376.711,35.6061L373.48199999999997,35.6061ZM402.98699999999997,29.8509L408.938,18.18425L415.461,18.18425L405.995,35.4889L405.995,46.5176L399.97900000000004,46.5176L399.97900000000004,35.684200000000004L390.5,18.18425L397.063,18.18425L402.98699999999997,29.8509ZM175.2917,72.0775Q175.2917,79.0697,171.2682,82.7936Q167.2578,86.5176,159.6797,86.5176L151.59375,86.5176L151.59375,58.1842L160.5651,58.1842Q167.5573,58.1842,171.4245,61.8561Q175.2917,65.515,175.2917,72.0775ZM169.0026,72.2337Q169.0026,63.1452,160.8776,63.1452L157.64844,63.1452L157.64844,81.5176L160.2526,81.5176Q169.0026,81.5176,169.0026,72.2337ZM199.0807,86.5176L197.0104,79.929L186.5938,79.929L184.5234,86.5176L178,86.5176L188.0781,58.1842L195.487,58.1842L205.6042,86.5176L199.0807,86.5176ZM195.5651,74.8509Q192.6875,65.6712,192.3229,64.4733Q191.97140000000002,63.2624,191.8151,62.5592Q191.1641,65.0462,188.1172,74.8509L195.5651,74.8509ZM220.1094,86.5176L214.0547,86.5176L214.0547,63.2233L206.3073,63.2233L206.3073,58.1842L227.8698,58.1842L227.8698,63.2233L220.1094,63.2233L220.1094,86.5176ZM249.914,86.5176L247.8437,79.929L237.4271,79.929L235.35680000000002,86.5176L228.8333,86.5176L238.9115,58.1842L246.3203,58.1842L256.437,86.5176L249.914,86.5176ZM246.39839999999998,74.8509Q243.5208,65.6712,243.1562,64.4733Q242.8047,63.2624,242.64839999999998,62.5592Q241.9974,65.0462,238.9505,74.8509L246.39839999999998,74.8509ZM259.927,58.1842L268.82,58.1842Q274.88800000000003,58.1842,277.635,59.8509Q280.38300000000004,61.5176,280.38300000000004,65.1634Q280.38300000000004,67.62440000000001,279.172,69.21289999999999Q277.974,70.7884,275.98199999999997,71.1139L275.98199999999997,71.3092Q278.703,71.9212,279.901,73.6139Q281.099,75.3066,281.099,78.1061Q281.099,82.0775,278.273,84.304Q275.461,86.5176,270.617,86.5176L259.927,86.5176L259.927,58.1842ZM265.98199999999997,69.0176L269.497,69.0176Q271.95799999999997,69.0176,273.065,68.31450000000001Q274.172,67.6113,274.172,65.9837Q274.172,64.46029999999999,272.961,63.8092Q271.76300000000003,63.1452,269.172,63.1452L265.98199999999997,63.1452L265.98199999999997,69.0176ZM265.98199999999997,73.8223L265.98199999999997,81.5176L269.927,81.5176Q272.427,81.5176,273.61199999999997,80.528Q274.81,79.5384,274.81,77.4941Q274.81,73.8223,269.73199999999997,73.8223L265.98199999999997,73.8223ZM304.081,86.5176L302.01,79.929L291.594,79.929L289.523,86.5176L283,86.5176L293.078,58.1842L300.48699999999997,58.1842L310.60400000000004,86.5176L304.081,86.5176ZM300.565,74.8509Q297.688,65.6712,297.323,64.4733Q296.971,63.2624,296.815,62.5592Q296.164,65.0462,293.11699999999996,74.8509L300.565,74.8509ZM330.956,78.4837Q330.956,82.2207,328.169,84.3691Q325.38300000000004,86.5176,320.422,86.5176Q315.852,86.5176,312.336,84.7988L312.336,79.1738Q315.227,80.4629,317.23199999999997,80.9967Q319.23699999999997,81.5176,320.89099999999996,81.5176Q322.88300000000004,81.5176,323.951,80.8275Q325.01800000000003,80.1374,325.01800000000003,78.7702Q325.01800000000003,77.9629,324.549,77.3379Q324.081,76.6999,323.169,76.1139Q322.27099999999996,75.528,319.471,74.2389Q316.85400000000004,73.054,315.539,71.96029999999999Q314.23699999999997,70.8665,313.456,69.4212Q312.674,67.96289999999999,312.674,66.02279999999999Q312.674,62.3639,315.24,60.2806Q317.805,58.1842,322.336,58.1842Q324.562,58.1842,326.581,58.7181Q328.61199999999997,59.2389,330.812,60.1895L328.85900000000004,64.90299999999999Q326.581,63.9655,325.08299999999997,63.6009Q323.586,63.2233,322.14099999999996,63.2233Q320.422,63.2233,319.497,63.9525Q318.586,64.6686,318.586,65.84049999999999Q318.586,66.6087,318.951,67.1947Q319.328,67.7676,320.135,68.3014Q320.956,68.83529999999999,323.977,70.2285Q327.98699999999997,72.0775,329.471,73.93950000000001Q330.956,75.7884,330.956,78.4837ZM352.206,86.5176L335.76,86.5176L335.76,58.1842L352.206,58.1842L352.206,63.1452L341.815,63.1452L341.815,69.0176L351.49,69.0176L351.49,73.9785L341.815,73.9785L341.815,81.5176L352.206,81.5176L352.206,86.5176Z" fill="#FFFFFF" fill-opacity="1"/></g></g></g><g clip-path="url(#master_svg1_97_1783)"><g><g><g><path d="M36.4487615814209,55.198781640625L36.4480615814209,55.197781640625L36.4463615814209,55.195381640625Q32.2442615814209,49.261081640625,31.259561581420897,42.312281640625Q30.9217615814209,42.468681640625,30.5879615814209,42.636581640625Q27.1669615814209,44.357681640625,24.570961581420896,47.085581640625Q21.982361581420896,49.805881640625,20.5515615814209,53.175781640625Q19.080161581420896,56.641281640625,19.0040615814209,60.414281640625Q18.926061581420896,64.28368164062499,20.3257615814209,67.879181640625Q21.6872615814209,71.376481640625,24.2830615814209,74.219881640625Q26.8899615814209,77.075481640625,30.382861581420897,78.880981640625Q33.8593615814209,80.678081640625,37.7823615814209,81.205281640625L65.4579615814209,81.206381640625L83.9382615814209,81.204281640625L83.9209615814209,91.204181640625L65.4406615814209,91.206181640625L37.141361581420895,91.205081640625L36.8398615814209,91.168281640625Q30.9749615814209,90.452481640625,25.777761581420897,87.765881640625Q20.7008615814209,85.141481640625,16.891881581420897,80.969281640625Q13.042231581420898,76.752481640625,11.005891581420899,71.521581640625Q8.887962581420899,66.081181640625,9.005934711420899,60.231081640625Q9.1209675814209,54.526781640625,11.347731581420899,49.282181640625Q13.489521581420899,44.237781640625,17.332601581420896,40.199281640625Q21.129561581420898,36.209281640625,26.106661581420898,33.705281640625Q28.8070615814209,32.346681640625,31.679861581420898,31.515181640625Q32.2374615814209,29.059281640625,33.2261615814209,26.684981640625Q35.539861581420894,21.128981640625,39.880661581420895,16.800261640625Q44.195761581420896,12.497201640625,49.8546615814209,10.065671640625Q55.6934615814209,7.5567966406250004,62.133661581420895,7.407891750625Q67.8267615814209,7.276258640625,73.1738615814209,9.020941640625Q78.3558615814209,10.711791640625,82.6641615814209,13.980011640625001Q86.9588615814209,17.237951640625,89.8740615814209,21.673381640625Q92.8696615814209,26.230981640625,94.0504615814209,31.492281640625Q94.1587615814209,31.974481640625,94.1704615814209,32.468381640625Q94.17636158142089,32.713981640625,94.1580615814209,32.958881640624995Q94.1398615814209,33.203781640624996,94.0976615814209,33.445781640625Q94.0554615814209,33.687781640625005,93.9898615814209,33.924381640625Q93.9241615814209,34.160981640624996,93.8355615814209,34.390081640625Q93.7469615814209,34.619081640625,93.6363615814209,34.838381640625Q93.5257615814209,35.057581640625,93.39426158142089,35.264981640624995Q93.2626615814209,35.472281640625,93.1113615814209,35.665681640624996Q92.9601615814209,35.859081640625,92.79066158142089,36.036781640625Q92.62116158142089,36.214481640624996,92.4350615814209,36.374581640624996Q92.2489615814209,36.534781640625,92.04796158142089,36.675881640625Q91.8470615814209,36.817081640625,91.6332615814209,36.937781640625005Q91.4194615814209,37.058581640625,91.1948615814209,37.157781640625004Q90.9701615814209,37.256981640625,90.7369615814209,37.333681640625Q90.5036615814209,37.410481640625,90.2639615814209,37.463881640625004Q90.0242615814209,37.517381640625004,89.7804615814209,37.547081640624995Q89.5366615814209,37.576781640625,89.2910615814209,37.582481640625005Q89.0763615814209,37.587481640625,88.8619615814209,37.573981640625Q88.6475615814209,37.560481640625,88.4351615814209,37.528681640624995Q88.2226615814209,37.496881640625,88.0137615814209,37.446981640625Q87.8047615814209,37.397081640625004,87.6008615814209,37.329481640625005Q87.3969615814209,37.261881640625,87.1996615814209,37.176981640625Q87.0022615814209,37.092081640625,86.8128615814209,36.990681640625Q86.6234615814209,36.889181640625,86.4434615814209,36.771881640625Q86.2634615814209,36.654481640625,86.0942615814209,36.522181640625Q85.9249615814209,36.389881640625,85.7676615814209,36.243481640625Q85.6103615814209,36.097181640624996,85.46616158142089,35.937881640625Q85.3219615814209,35.778581640625,85.1919615814209,35.607481640625Q85.0619615814209,35.436481640625004,84.9470615814209,35.254881640625Q84.8321615814209,35.073281640625,84.7333615814209,34.882581640625Q84.6344615814209,34.691881640625,84.5522615814209,34.493381640625Q84.4701615814209,34.294781640625004,84.4052615814209,34.089981640625Q84.3404615814209,33.885181640625,84.2933615814209,33.675581640625L84.2901615814209,33.661381640624995Q83.5079615814209,30.188081640625,81.5186615814209,27.161481640625Q79.5482615814209,24.163581640625,76.6239615814209,21.945281640624998Q73.6581615814209,19.695481640624998,70.0778615814209,18.527181640625003Q66.3561615814209,17.312861640625,62.3718615814209,17.404981640625Q57.8678615814209,17.509081640625,53.8079615814209,19.253581640625Q49.9057615814209,20.930281640624997,46.9443615814209,23.883481640625Q44.0087615814209,26.810881640625,42.458161581420896,30.534581640625Q40.865661581420895,34.358881640625,40.9643615814209,38.504581640625Q41.1066615814209,44.474181640625,44.6008615814209,49.413181640625Q44.6040615814209,49.417681640625,44.6072615814209,49.422181640625L44.607761581420895,49.422781640625Q44.8223615814209,49.725781640625,44.9898615814209,50.056981640625Q45.1573615814209,50.388281640625,45.2741615814209,50.740581640625Q45.390961581420896,51.092881640625,45.4544615814209,51.458581640625Q45.5179615814209,51.824181640625,45.5267615814209,52.195181640625Q45.532661581420896,52.440781640625,45.5143615814209,52.685681640625Q45.4961615814209,52.930681640625,45.4539615814209,53.172581640625Q45.4117615814209,53.414581640625,45.3461615814209,53.651181640625Q45.2804615814209,53.887881640625,45.1918615814209,54.116881640625Q45.103261581420895,54.345981640625,44.9926615814209,54.565181640625Q44.8820615814209,54.784381640625,44.7505615814209,54.991781640625Q44.6189615814209,55.199081640625,44.4676615814209,55.392481640625Q44.316461581420896,55.585981640625,44.146961581420896,55.763581640625Q43.9774615814209,55.941281640625,43.7912615814209,56.101481640625Q43.6051615814209,56.261581640625,43.4042615814209,56.402781640625Q43.2033615814209,56.543881640625,42.9895615814209,56.664681640625Q42.7757615814209,56.785381640625,42.551061581420896,56.884581640625Q42.3264615814209,56.983881640625,42.0931615814209,57.060581640625Q41.8598615814209,57.137281640625,41.620161581420895,57.190781640625Q41.3805615814209,57.244181640625,41.136661581420896,57.273981640625Q40.8928615814209,57.303681640625,40.647361581420896,57.309281640625Q40.3413615814209,57.316381640625,40.036861581420894,57.286081640625Q39.7322615814209,57.255781640625,39.4336615814209,57.188581640625Q39.1350615814209,57.121381640625,38.846861581420896,57.018281640625Q38.5585615814209,56.915181640625,38.2850615814209,56.777681640625Q38.0115615814209,56.640181640625,37.7568615814209,56.470381640625Q37.5021615814209,56.300581640625,37.2699615814209,56.100981640625Q37.0378615814209,55.901381640625,36.8317615814209,55.674981640625Q36.6256615814209,55.448581640625,36.4487615814209,55.198781640625Z" fill-rule="evenodd" fill="url(#master_svg2_1_643)" fill-opacity="1"/></g><g><ellipse cx="96.73716163635254" cy="61.05014419555664" rx="29.06915283203125" ry="27.94906997680664" stroke="url(#master_svg3_1_640)" fill-opacity="0" fill="none" stroke-width="10"/></g><g transform="matrix(0.8993945717811584,-0.4371376633644104,0.46110284328460693,0.8873466849327087,1.8198313106037176,43.47313163677188)"><path d="M126.70003763122558,23.125180625Q126.30943763122559,23.500220625,125.90093763122559,23.856290625Q125.49233763122558,24.212350625,125.06663763122559,24.548600625Q124.64093763122558,24.884850625,124.19913763122558,25.200490625Q123.75733763122558,25.516140625,123.30043763122558,25.810440625Q122.84353763122559,26.104750625,122.37263763122559,26.377010625Q121.90183763122559,26.649280625,121.41803763122559,26.898840625Q120.93423763122559,27.148440625,120.43863763122559,27.374840624999997Q119.94313763122558,27.601140625,119.43703763122559,27.803640625Q118.93083763122559,28.006240625,118.41523763122558,28.184540625Q117.89973763122559,28.362740625,117.37593763122558,28.516340624999998Q116.85223763122559,28.669940625000002,116.32143763122559,28.798540625Q115.79073763122558,28.927040625,115.25423763122558,29.030240624999998Q114.71783763122559,29.133440625,114.17683763122558,29.211140625Q113.63593763122559,29.288740625000003,113.09183763122559,29.340540625Q112.54763763122558,29.392440625,112.00163763122558,29.418340625Q111.45553763122558,29.444340625000002,110.90883763122558,29.444340625000002Q110.36213763122558,29.444340625000002,109.81613763122559,29.418340625Q109.27013763122558,29.392440625,108.72603763122558,29.340540625Q108.18193763122558,29.288740625000003,107.64103763122559,29.211140625Q107.10013763122558,29.133540625000002,106.56363763122559,29.030340625Q106.02723763122559,28.927140625,105.49653763122558,28.798540625Q104.96578763122558,28.670040625,104.44204763122559,28.516440625Q103.91831763122559,28.362840625,103.40277763122559,28.184640625Q102.88723763122559,28.006340625,102.38110763122559,27.803840625Q101.87498763122558,27.601340625,101.37945763122559,27.375040625Q100.88392763122559,27.148640625,100.40016763122559,26.899140625Q99.91639763122559,26.649550625,99.44552763122559,26.377300625Q98.97465763122558,26.105060625,98.51779763122559,25.810790625Q98.06092763122558,25.516510625000002,97.61913763122558,25.200890625Q97.17733763122558,24.885280625,96.75165763122558,24.549060625Q96.32597763122558,24.212840625,95.91739963122559,23.856810625Q95.50882563122559,23.500780625,95.11831994072558,23.125770625Q95.50883063122559,22.750730625,95.91741163122559,22.394660625Q96.32598763122559,22.038600625,96.7516876312256,21.702350625Q97.17737763122558,21.366100625,97.61917763122558,21.050460625Q98.06098763122559,20.734810625,98.51786763122558,20.440510625Q98.97474763122558,20.146210625000002,99.44563763122558,19.873940625Q99.91651763122559,19.601670625,100.40029763122558,19.352080625Q100.88408763122558,19.102480625,101.37962763122559,18.876150625Q101.87517763122558,18.649810625,102.38132763122559,18.447270625Q102.88746763122559,18.244720625,103.40302763122558,18.066440625Q103.91858763122559,17.888170625,104.44235763122559,17.734571625Q104.96611763122559,17.580977625,105.49683763122559,17.452426625Q106.02763763122559,17.323876625,106.56403763122559,17.220672625Q107.10053763122559,17.117468625,107.64143763122559,17.039852625Q108.18233763122558,16.962237625,108.72653763122558,16.910391625Q109.27063763122558,16.858546725,109.81673763122558,16.832593725Q110.36273763122558,16.806640625,110.90943763122559,16.806640625Q111.45613763122559,16.806640625,112.0021376312256,16.832591125Q112.54823763122559,16.858541725,113.09233763122559,16.910381625Q113.63643763122559,16.962221625,114.17733763122558,17.039830625Q114.71823763122559,17.117438625,115.25463763122559,17.220632625Q115.79113763122558,17.323826625,116.32183763122558,17.452364625Q116.85253763122559,17.580901625,117.37623763122559,17.734481625Q117.90003763122559,17.888060625,118.41553763122559,18.066320625Q118.93103763122559,18.244580625,119.43723763122559,18.447110625Q119.94333763122559,18.649640625,120.43883763122558,18.875950625Q120.93433763122559,19.102260625,121.41813763122559,19.351830624999998Q121.9019376312256,19.601400625,122.37273763122559,19.873650625Q122.84363763122559,20.145890625,123.30053763122558,20.440160625Q123.75743763122559,20.734440625,124.19913763122558,21.050050625Q124.64093763122558,21.365670625,125.06663763122559,21.701890625Q125.49233763122558,22.038110625,125.90093763122559,22.394140625Q126.30953763122558,22.750170625,126.70003763122558,23.125180625Z" fill-rule="evenodd" fill="url(#master_svg4_1_635)" fill-opacity="1"/></g></g><g transform="matrix(0.8136252164840698,0.5813896656036377,-0.5804058909416199,0.8143272995948792,52.03451193225078,-36.557930934846354)"><path d="M85.68176839294433,60.032025859375Q88.14038839294433,62.248720859375,91.69351839294434,62.248720859375Q91.89002839294433,62.248720859375,92.08558839294433,62.267981859375Q92.28114839294433,62.287242859375,92.47387839294433,62.325578859375Q92.66660839294434,62.363915859375,92.85465839294433,62.420958859375Q93.04266839294434,62.478001859375,93.22426839294434,62.553201859375Q93.40576839294434,62.628402859375,93.57906839294434,62.721034859375Q93.75236839294433,62.813667859375,93.91576839294433,62.922841959375Q94.07916839294434,63.032015559375,94.23106839294434,63.156678859375Q94.38296839294433,63.281341859375,94.52196839294433,63.420292859375Q94.66086839294434,63.559244859375,94.78556839294434,63.711146859375Q94.91026839294433,63.863049859375,95.01936839294433,64.026435859375Q95.12856839294433,64.189825859375,95.22116839294434,64.363135859375Q95.31386839294433,64.536435859375,95.38906839294434,64.717985859375Q95.46426839294433,64.899535859375,95.52126839294434,65.087585859375Q95.57836839294434,65.275625859375,95.61666839294433,65.468355859375Q95.65496839294434,65.661085859375,95.67426839294434,65.856655859375Q95.69346839294434,66.052215859375,95.69346839294434,66.248715859375Q95.69346839294434,66.445225859375,95.67426839294434,66.640785859375Q95.65496839294434,66.836345859375,95.61666839294433,67.029085859375Q95.57836839294434,67.221815859375,95.52126839294434,67.409855859375Q95.46426839294433,67.597905859375,95.38906839294434,67.779455859375Q95.31386839294433,67.961005859375,95.22116839294434,68.134305859375Q95.12856839294433,68.307605859375,95.01936839294433,68.470995859375Q94.91026839294433,68.634385859375,94.78556839294434,68.786295859375Q94.66086839294434,68.938195859375,94.52196839294433,69.077145859375Q94.38296839294433,69.216095859375,94.23106839294434,69.340765859375Q94.07916839294434,69.465425859375,93.91576839294433,69.574595859375Q93.75236839294433,69.683775859375,93.57906839294434,69.776405859375Q93.40576839294434,69.869035859375,93.22426839294434,69.944235859375Q93.04266839294434,70.019435859375,92.85464839294434,70.076485859375Q92.66660839294434,70.133525859375,92.47387839294433,70.171855859375Q92.28114839294433,70.210195859375,92.08558839294433,70.229455859375Q91.89002839294433,70.248715859375,91.69351839294434,70.248715859375Q88.45487839294434,70.248715859375,85.48173839294434,69.114135859375Q82.57698239294433,68.005645859375,80.32034839294434,65.969635859375Q80.16488839294433,65.829375859375,80.02492839294433,65.673655859375Q79.88495839294434,65.517935859375,79.76201839294434,65.348445859375Q79.63907839294434,65.178965859375,79.53450839294433,64.997575859375Q79.42992839294433,64.816175859375,79.34486839294433,64.624855859375Q79.25979839294433,64.433535859375,79.19517839294434,64.234385859375Q79.13054839294433,64.035225859375,79.08706839294433,63.830415859375Q79.04358839294433,63.625601859375,79.02172839294434,63.417367859375Q78.99986839294434,63.209133859375,78.99986839294434,62.999755859375Q78.99986839294434,62.803248859375,79.01912839294434,62.607686859375Q79.03838839294434,62.412125859375,79.07672839294433,62.219394859375Q79.11506839294434,62.026662859375,79.17210839294434,61.838615859375Q79.22914839294434,61.650575859375,79.30434839294433,61.469025859375Q79.37954839294433,61.287475859375,79.47218839294433,61.114165859375Q79.56481839294433,60.940865859375,79.67398839294434,60.777475859375Q79.78316839294433,60.614085859375,79.90782839294434,60.462185859375Q80.03248839294433,60.310275859375,80.17143839294434,60.171325859375Q80.31038839294433,60.032375859375,80.46229839294433,59.907715859375Q80.61419839294433,59.783055859375,80.77758839294434,59.673875859375Q80.94097839294433,59.564705859375,81.11427839294434,59.472075859374996Q81.28758839294433,59.379435859375,81.46913839294433,59.304235859375Q81.65068839294433,59.229035859375,81.83872839294433,59.171995859375Q82.02677539294433,59.114955859375,82.21950739294434,59.076615859374996Q82.41223839294433,59.038275859375,82.60779939294433,59.019015859375Q82.80336139294434,58.999755859375,82.99986839294434,58.999755859375Q83.36792539294433,58.999755859375,83.72980239294434,59.066915859375Q84.09167839294433,59.134085859375,84.43521839294434,59.266155859375Q84.77876839294433,59.398225859375,85.09243839294433,59.590775859375Q85.40611839294434,59.783325859375,85.67938839294433,60.029875859375Q85.68057839294434,60.030955859375,85.68176839294433,60.032025859375Z" fill-rule="evenodd" fill="url(#master_svg5_1_640)" fill-opacity="1"/></g></g></g></g></g></g></svg>