<!--
  Licensed to the Apache Software Foundation (ASF) under one
  or more contributor license agreements.  See the NOTICE file
  distributed with this work for additional information
  regarding copyright ownership.  The ASF licenses this file
  to you under the Apache License, Version 2.0 (the
  "License"); you may not use this file except in compliance
  with the License.  You may obtain a copy of the License at

    http://www.apache.org/licenses/LICENSE-2.0

  Unless required by applicable law or agreed to in writing,
  software distributed under the License is distributed on an
  "AS IS" BASIS, WITHOUT WARRANTIES OR CONDITIONS OF ANY
  KIND, either express or implied.  See the License for the
  specific language governing permissions and limitations
  under the License.
-->
<svg xmlns="http://www.w3.org/2000/svg" viewBox="0 0 760 360" style="max-width:100%;font-family:ui-monospace,SFMono-Regular,Menlo,monospace;font-size:12px">
  <defs>
    <marker id="dtxar" markerWidth="9" markerHeight="9" refX="7" refY="3" orient="auto">
      <path d="M0,0 L7,3 L0,6 Z" fill="#8a6d1a"/>
    </marker>
  </defs>
  <line x1="120" y1="55" x2="740" y2="55" stroke="#cdb4db" stroke-width="1"/>
  <line x1="120" y1="120" x2="740" y2="120" stroke="#e5e5ef" stroke-width="1"/>
  <line x1="120" y1="160" x2="740" y2="160" stroke="#e5e5ef"/>
  <line x1="120" y1="200" x2="740" y2="200" stroke="#e5e5ef"/>
  <text x="8" y="59" fill="#5b3fa6">QD</text>
  <text x="8" y="124" fill="#333">seg0</text>
  <text x="8" y="164" fill="#333">seg1</text>
  <text x="8" y="204" fill="#333">seg2</text>
  <text x="8" y="313" fill="#333">reader B</text>
  <line x1="300" y1="30" x2="300" y2="332" stroke="#8a6d1a" stroke-width="2" stroke-dasharray="4 3"/>
  <rect x="182" y="30" width="118" height="20" rx="3" fill="#fff4d6" stroke="#8a6d1a"/>
  <text x="188" y="44" fill="#8a6d1a">&#10214;commit point&#10215;</text>
  <text x="150" y="18" fill="#8a6d1a">QD flushes distributed-commit WAL</text>
  <circle cx="300" cy="55" r="4" fill="#8a6d1a"/>
  <rect x="360" y="108" width="120" height="22" rx="3" fill="#eafaf0" stroke="#cfead9"/>
  <text x="366" y="123" fill="#227a4b">COMMIT PREPARED</text>
  <rect x="430" y="148" width="120" height="22" rx="3" fill="#eafaf0" stroke="#cfead9"/>
  <text x="436" y="163" fill="#227a4b">COMMIT PREPARED</text>
  <rect x="520" y="188" width="120" height="22" rx="3" fill="#eafaf0" stroke="#cfead9"/>
  <text x="526" y="203" fill="#227a4b">COMMIT PREPARED</text>
  <line x1="300" y1="55" x2="358" y2="119" stroke="#8a6d1a" marker-end="url(#dtxar)"/>
  <line x1="300" y1="55" x2="428" y2="159" stroke="#8a6d1a" marker-end="url(#dtxar)"/>
  <line x1="300" y1="55" x2="518" y2="199" stroke="#8a6d1a" marker-end="url(#dtxar)"/>
  <rect x="120" y="293" width="180" height="24" rx="3" fill="#f3f3f6" stroke="#cdcdd8"/>
  <text x="128" y="309" fill="#777">0 on ALL segs</text>
  <rect x="300" y="293" width="440" height="24" rx="3" fill="#eafaf0" stroke="#cfead9"/>
  <text x="308" y="309" fill="#227a4b">N on ALL segs (decided by the distributed snapshot)</text>
  <text x="120" y="345" fill="#555">visibility flips at the commit point, not at the staggered arrivals</text>
</svg>