<!--
  Licensed to the Apache Software Foundation (ASF) under one
  or more contributor license agreements.  See the NOTICE file
  distributed with this work for additional information
  regarding copyright ownership.  The ASF licenses this file
  to you under the Apache License, Version 2.0 (the
  "License"); you may not use this file except in compliance
  with the License.  You may obtain a copy of the License at

    http://www.apache.org/licenses/LICENSE-2.0

  Unless required by applicable law or agreed to in writing,
  software distributed under the License is distributed on an
  "AS IS" BASIS, WITHOUT WARRANTIES OR CONDITIONS OF ANY
  KIND, either express or implied.  See the License for the
  specific language governing permissions and limitations
  under the License.
-->
<svg xmlns="http://www.w3.org/2000/svg" viewBox="0 0 720 240" width="100%" style="height:auto;display:block;min-width:600px" font-family="ui-monospace,SFMono-Regular,Menlo,monospace" font-size="11"><defs><marker id="ax" viewBox="0 0 10 10" refX="9" refY="5" markerWidth="7" markerHeight="7" orient="auto-start-reverse"><path d="M0 0 L10 5 L0 10 z" fill="#8a7aa8"/></marker></defs><rect x="20" y="20" width="130" height="40" rx="6" fill="#fff4d6" stroke="#e0b365" stroke-width="1.5"/><text x="85" y="37" text-anchor="middle" fill="#8a6d1a" font-weight="700">xid = 1063</text><text x="85" y="52" text-anchor="middle" fill="#8a6d1a">the transaction</text><line x1="150" y1="40" x2="200" y2="40" stroke="#8a7aa8" stroke-width="1.5" marker-end="url(#ax)"/><rect x="200" y="10" width="200" height="60" rx="6" fill="#f5edff" stroke="#b79ad6" stroke-width="1.5"/><text x="300" y="27" text-anchor="middle" fill="#6b5b95" font-weight="700">TransactionIdToPage</text><text x="300" y="43" text-anchor="middle">1063 / 131072</text><text x="300" y="59" text-anchor="middle" fill="#6b5b95">= page 0</text><line x1="400" y1="40" x2="450" y2="40" stroke="#8a7aa8" stroke-width="1.5" marker-end="url(#ax)"/><rect x="450" y="10" width="250" height="60" rx="6" fill="#f5edff" stroke="#b79ad6" stroke-width="1.5"/><text x="575" y="27" text-anchor="middle" fill="#6b5b95" font-weight="700">TransactionIdToByte</text><text x="575" y="43" text-anchor="middle">(1063 % 131072) / 4</text><text x="575" y="59" text-anchor="middle" fill="#6b5b95">= byte 265</text><line x1="575" y1="70" x2="575" y2="105" stroke="#8a7aa8" stroke-width="1.5" marker-end="url(#ax)"/><rect x="380" y="105" width="320" height="55" rx="6" fill="#f5edff" stroke="#b79ad6" stroke-width="1.5"/><text x="540" y="122" text-anchor="middle" fill="#6b5b95" font-weight="700">TransactionIdToBIndex &times; 2</text><text x="540" y="138" text-anchor="middle">(1063 % 4) &times; 2 = 3 &times; 2</text><text x="540" y="154" text-anchor="middle" fill="#6b5b95">= bit-shift 6</text><line x1="380" y1="132" x2="300" y2="132" stroke="#8a7aa8" stroke-width="1.5" marker-end="url(#ax)"/><text x="185" y="100" text-anchor="middle" fill="#6b5b95">byte 265 of page 0:</text><rect x="60" y="112" width="60" height="34" fill="#f5edff" stroke="#cdb4db"/><text x="90" y="134" text-anchor="middle">00</text><rect x="120" y="112" width="60" height="34" fill="#f5edff" stroke="#cdb4db"/><text x="150" y="134" text-anchor="middle">00</text><rect x="180" y="112" width="60" height="34" fill="#f5edff" stroke="#cdb4db"/><text x="210" y="134" text-anchor="middle">00</text><rect x="240" y="112" width="60" height="34" fill="#fff4d6" stroke="#e0b365" stroke-width="2"/><text x="270" y="134" text-anchor="middle" fill="#8a6d1a" font-weight="700">01</text><text x="90" y="160" text-anchor="middle" fill="#8a939c" font-size="10">1060</text><text x="150" y="160" text-anchor="middle" fill="#8a939c" font-size="10">1061</text><text x="210" y="160" text-anchor="middle" fill="#8a939c" font-size="10">1062</text><text x="270" y="160" text-anchor="middle" fill="#8a6d1a" font-size="10" font-weight="700">1063</text><rect x="60" y="188" width="600" height="40" rx="6" fill="#eafaf0" stroke="#cfead9" stroke-width="1.5"/><text x="360" y="205" text-anchor="middle" fill="#2f6f4f" font-weight="700">(byteptr &gt;&gt; 6) &amp; 0x3  =  01  =  TRANSACTION_STATUS_COMMITTED</text><text x="360" y="221" text-anchor="middle" fill="#2f6f4f">two bits read &mdash; no lock beyond the SLRU buffer, no table lookup</text></svg>