<!--
  Licensed to the Apache Software Foundation (ASF) under one
  or more contributor license agreements.  See the NOTICE file
  distributed with this work for additional information
  regarding copyright ownership.  The ASF licenses this file
  to you under the Apache License, Version 2.0 (the
  "License"); you may not use this file except in compliance
  with the License.  You may obtain a copy of the License at

    http://www.apache.org/licenses/LICENSE-2.0

  Unless required by applicable law or agreed to in writing,
  software distributed under the License is distributed on an
  "AS IS" BASIS, WITHOUT WARRANTIES OR CONDITIONS OF ANY
  KIND, either express or implied.  See the License for the
  specific language governing permissions and limitations
  under the License.
-->
<svg xmlns="http://www.w3.org/2000/svg" viewBox="0 0 900 230" width="100%" font-family="ui-monospace, SFMono-Regular, Menlo, monospace">
  <defs><marker id="s143arr" markerWidth="9" markerHeight="9" refX="7" refY="3" orient="auto"><path d="M0,0 L7,3 L0,6 Z" fill="#6b5a86"/></marker></defs>
  <!-- lane 1: MCV hit -->
  <rect x="10" y="43" width="120" height="54" rx="7" fill="#f5edff" stroke="#cdb4db" stroke-width="1.5"/>
  <text x="70" y="66" text-anchor="middle" font-size="12" fill="#4b3a63">WHERE grp</text>
  <text x="70" y="83" text-anchor="middle" font-size="12" fill="#4b3a63">= 'g00'</text>
  <rect x="150" y="43" width="118" height="54" rx="7" fill="#eafaf0" stroke="#cfead9" stroke-width="1.5"/>
  <text x="209" y="66" text-anchor="middle" font-size="12" fill="#2f5d43">found in MCV</text>
  <text x="209" y="83" text-anchor="middle" font-size="12" fill="#2f5d43">(yes)</text>
  <rect x="288" y="43" width="220" height="54" rx="7" fill="#fff4d6" stroke="#8a6d1a" stroke-width="1.5"/>
  <text x="398" y="66" text-anchor="middle" font-size="12" fill="#3a2e12">selec = most_common_freqs[i]</text>
  <text x="398" y="83" text-anchor="middle" font-size="13" fill="#3a2e12" font-weight="bold">= 0.50127</text>
  <rect x="528" y="43" width="104" height="54" rx="7" fill="#eafaf0" stroke="#cfead9" stroke-width="1.5"/>
  <text x="580" y="66" text-anchor="middle" font-size="12" fill="#2f5d43">× reltuples</text>
  <text x="580" y="83" text-anchor="middle" font-size="12" fill="#2f5d43">100000</text>
  <rect x="652" y="43" width="120" height="54" rx="7" fill="#fff4d6" stroke="#8a6d1a" stroke-width="2"/>
  <text x="712" y="66" text-anchor="middle" font-size="12" fill="#3a2e12">rows</text>
  <text x="712" y="84" text-anchor="middle" font-size="15" fill="#3a2e12" font-weight="bold">50127</text>
  <line x1="130" y1="70" x2="149" y2="70" stroke="#6b5a86" stroke-width="1.5" marker-end="url(#s143arr)"/>
  <line x1="268" y1="70" x2="287" y2="70" stroke="#6b5a86" stroke-width="1.5" marker-end="url(#s143arr)"/>
  <line x1="508" y1="70" x2="527" y2="70" stroke="#6b5a86" stroke-width="1.5" marker-end="url(#s143arr)"/>
  <line x1="632" y1="70" x2="651" y2="70" stroke="#6b5a86" stroke-width="1.5" marker-end="url(#s143arr)"/>
  <!-- lane 2: non-MCV -->
  <rect x="10" y="140" width="120" height="60" rx="7" fill="#f5edff" stroke="#cdb4db" stroke-width="1.5"/>
  <text x="70" y="164" text-anchor="middle" font-size="12" fill="#4b3a63">WHERE grp</text>
  <text x="70" y="181" text-anchor="middle" font-size="12" fill="#4b3a63">= 'g0500'</text>
  <rect x="150" y="140" width="118" height="60" rx="7" fill="#eafaf0" stroke="#cfead9" stroke-width="1.5"/>
  <text x="209" y="164" text-anchor="middle" font-size="12" fill="#2f5d43">not in MCV</text>
  <text x="209" y="181" text-anchor="middle" font-size="12" fill="#2f5d43">(no)</text>
  <rect x="288" y="140" width="220" height="60" rx="7" fill="#f5edff" stroke="#cdb4db" stroke-width="1.5"/>
  <text x="398" y="158" text-anchor="middle" font-size="11" fill="#4b3a63">(1 − Σfreq − null_frac)</text>
  <text x="398" y="173" text-anchor="middle" font-size="11" fill="#4b3a63">÷ (n_distinct − n_mcv)</text>
  <text x="398" y="191" text-anchor="middle" font-size="13" fill="#4b3a63" font-weight="bold">= 0.000497</text>
  <rect x="528" y="140" width="104" height="60" rx="7" fill="#eafaf0" stroke="#cfead9" stroke-width="1.5"/>
  <text x="580" y="164" text-anchor="middle" font-size="12" fill="#2f5d43">× reltuples</text>
  <text x="580" y="181" text-anchor="middle" font-size="12" fill="#2f5d43">100000</text>
  <rect x="652" y="140" width="120" height="60" rx="7" fill="#f5edff" stroke="#cdb4db" stroke-width="2"/>
  <text x="712" y="164" text-anchor="middle" font-size="12" fill="#4b3a63">rows</text>
  <text x="712" y="184" text-anchor="middle" font-size="15" fill="#4b3a63" font-weight="bold">50</text>
  <line x1="130" y1="170" x2="149" y2="170" stroke="#6b5a86" stroke-width="1.5" marker-end="url(#s143arr)"/>
  <line x1="268" y1="170" x2="287" y2="170" stroke="#6b5a86" stroke-width="1.5" marker-end="url(#s143arr)"/>
  <line x1="508" y1="170" x2="527" y2="170" stroke="#6b5a86" stroke-width="1.5" marker-end="url(#s143arr)"/>
  <line x1="632" y1="170" x2="651" y2="170" stroke="#6b5a86" stroke-width="1.5" marker-end="url(#s143arr)"/>
</svg>